# xmcd CD database file
#
# Track frame offsets:
#	150
#	12471
#	38934
#	55473
#	69130
#	83768
#	98362
#	111641
#	123869
#	137206
#	150424
#	164579
#	205558
#	240841
#	260392
#	282149
#	311257
#
# Disc length: 4686 seconds
#
# Revision: 0
# Processed by: cddbd v1.5.2PL0 Copyright (c) Steve Scherf et al.
# Submitted via: CDex 1.51
#
DISCID=d7124c11
DTITLE=Dexter Gordon - There he blows
DYEAR=2011
DGENRE=Jazz
TTITLE0=Dexters Riff
TTITLE1=Settin' the pace pts 1 and 2
TTITLE2=So easy
TTITLE3=Long Tall Dexter
TTITLE4=Dexter Rides Again
TTITLE5=I can't escape from You
TTITLE6=Dexter Digs in
TTITLE7=Dexter's Minor Mad
TTITLE8=Blow Mr Dexter
TTITLE9=Dexter's Deck
TTITLE10=Dexter's Cutting Out
TTITLE11=Daddy Plays the Horn
TTITLE12=Confirmation
TTITLE13=Darn that Dream
TTITLE14=Number four
TTITLE15=Autumn in New York
TTITLE16=You can depend on me
EXTD=YEAR: 2011
EXTT0=
EXTT1=
EXTT2=
EXTT3=
EXTT4=
EXTT5=
EXTT6=
EXTT7=
EXTT8=
EXTT9=
EXTT10=
EXTT11=
EXTT12=
EXTT13=
EXTT14=
EXTT15=
EXTT16=
PLAYORDER=
